<?xml version="1.0" encoding="UTF-8" standalone="no"?>
<svg
   fill="none"
   fill-rule="evenodd"
   stroke="#000000"
   stroke-width="0.501"
   stroke-linejoin="bevel"
   stroke-miterlimit="10"
   font-family="'Times New Roman'"
   font-size="16px"
   style="font-variant-ligatures:none"
   width="153.33333"
   height="153.33333"
   viewBox="-125.334 -4131.66 115 115"
   version="1.1"
   id="svg1"
   sodipodi:docname="orro.svg"
   inkscape:version="1.4.2 (f4327f4, 2025-05-13)"
   inkscape:export-filename="orro.png"
   inkscape:export-xdpi="96"
   inkscape:export-ydpi="96"
   xmlns:inkscape="http://www.inkscape.org/namespaces/inkscape"
   xmlns:sodipodi="http://sodipodi.sourceforge.net/DTD/sodipodi-0.dtd"
   xmlns:xlink="http://www.w3.org/1999/xlink"
   xmlns="http://www.w3.org/2000/svg"
   xmlns:svg="http://www.w3.org/2000/svg">
  <sodipodi:namedview
     id="namedview1"
     pagecolor="#ffffff"
     bordercolor="#000000"
     borderopacity="0.25"
     inkscape:showpageshadow="2"
     inkscape:pageopacity="0.0"
     inkscape:pagecheckerboard="0"
     inkscape:deskcolor="#d1d1d1"
     inkscape:document-units="pt"
     inkscape:zoom="4.1039923"
     inkscape:cx="81.262336"
     inkscape:cy="67.617086"
     inkscape:window-width="1920"
     inkscape:window-height="1009"
     inkscape:window-x="-8"
     inkscape:window-y="-8"
     inkscape:window-maximized="1"
     inkscape:current-layer="svg1" />
  <defs
     id="defs1">
    <linearGradient
       id="linearGradient4"
       inkscape:collect="always">
      <stop
         style="stop-color:#00002a;stop-opacity:1;"
         offset="0"
         id="stop4" />
      <stop
         style="stop-color:#7b37b0;stop-opacity:1;"
         offset="1"
         id="stop5" />
    </linearGradient>
    <inkscape:path-effect
       effect="fillet_chamfer"
       id="path-effect3"
       is_visible="true"
       lpeversion="1"
       nodesatellites_param="F,0,0,1,0,20,0,1 @ F,0,0,1,0,50,0,1 @ F,0,0,1,0,20,0,1 @ F,0,0,1,0,50,0,1"
       radius="0"
       unit="px"
       method="auto"
       mode="F"
       chamfer_steps="1"
       flexible="false"
       use_knot_distance="true"
       apply_no_radius="true"
       apply_with_radius="true"
       only_selected="false"
       hide_knots="false" />
    <inkscape:path-effect
       effect="fillet_chamfer"
       id="path-effect2"
       is_visible="true"
       lpeversion="1"
       nodesatellites_param="F,0,0,1,0,0,0,1 @ F,0,0,1,0,0,0,1 @ F,0,0,1,0,0,0,1 @ F,0,0,1,0,0,0,1"
       radius="0"
       unit="px"
       method="auto"
       mode="F"
       chamfer_steps="1"
       flexible="false"
       use_knot_distance="true"
       apply_no_radius="true"
       apply_with_radius="true"
       only_selected="false"
       hide_knots="false" />
    <linearGradient
       inkscape:collect="always"
       xlink:href="#linearGradient4"
       id="linearGradient5"
       x1="-125.6995"
       y1="-4131.7261"
       x2="-10.699501"
       y2="-4016.5942"
       gradientUnits="userSpaceOnUse" />
  </defs>
  <path
     style="font-variant-ligatures:none;fill:url(#linearGradient5);fill-opacity:1;stroke:none;stroke-width:0.37575"
     id="rect1"
     width="115"
     height="115"
     x="-125.6995"
     y="-4131.8428"
     inkscape:label="BackFill"
     sodipodi:type="rect"
     inkscape:path-effect="#path-effect3"
     d="m -105.6995,-4131.8428 h 44.999999 a 50,50 45 0 1 50,50 v 45 a 20,20 135 0 1 -20,20 h -45 a 50,50 45 0 1 -49.999999,-50 l 0,-45 a 20,20 135 0 1 20,-20 z" />
  <g
     id="Layer 1"
     transform="matrix(1,0,0,-1,0.125,40.625)">
    <path
       d="m -110.0126,4105.205 c -2.48,2.504 -3.8464,5.904 -3.8464,9.576 0,3.672 1.3664,7.072 3.8464,9.576 2.5032,2.528 5.9312,3.928 9.6536,3.928 3.7408,0 7.1768,-1.4 9.6728,-3.928 2.468,-2.496 3.8272,-5.896 3.8272,-9.576 0,-3.672 -1.3592,-7.072 -3.8272,-9.576 -2.496,-2.528 -5.932,-3.92 -9.6728,-3.92 -3.7224,0 -7.1504,1.392 -9.6536,3.92 z m 57.6,0 c -2.48,2.504 -3.8464,5.904 -3.8464,9.576 0,3.672 1.3664,7.072 3.8464,9.576 2.5032,2.528 5.9312,3.928 9.6536,3.928 3.7408,0 7.1768,-1.4 9.6728,-3.928 2.468,-2.496 3.8272,-5.896 3.8272,-9.576 0,-3.672 -1.3592,-7.072 -3.8272,-9.576 -2.496,-2.528 -5.932,-3.92 -9.6728,-3.92 -3.7224,0 -7.1504,1.392 -9.6536,3.92 z m -31.4464,-3.32 v 13.2 c 0,7.368 5.3728,13.2 12.6,13.2 v -5.08 c -4.184,0 -7.3224,-3.64 -7.3224,-8.12 v -13.2 z m 14.4,0 v 13.2 c 0,7.368 5.3728,13.2 12.6,13.2 v -5.08 c -4.184,0 -7.3224,-3.64 -7.3224,-8.12 v -13.2 z m -23.0552,12.896 c 0,4.656 -3.4456,8.304 -7.8448,8.304 -4.3984,0 -7.844,-3.648 -7.844,-8.304 0,-4.656 3.4456,-8.304 7.844,-8.304 4.3992,0 7.8448,3.648 7.8448,8.304 z m 57.6,0 c 0,4.656 -3.4456,8.304 -7.8448,8.304 -4.3984,0 -7.844,-3.648 -7.844,-8.304 0,-4.656 3.4456,-8.304 7.844,-8.304 4.3992,0 7.8448,3.648 7.8448,8.304 z m 7.8568,6.584 c -0.4336,0.192 -0.8184,0.456 -1.1416,0.776 -0.3248,0.328 -0.5856,0.712 -0.7744,1.144 -0.1896,0.432 -0.2856,0.904 -0.2856,1.4 0,0.488 0.096,0.96 0.2856,1.392 0.1888,0.44 0.4496,0.824 0.7744,1.144 0.324,0.328 0.708,0.584 1.1416,0.776 0.4336,0.192 0.904,0.288 1.3984,0.288 0.4944,0 0.9648,-0.096 1.3984,-0.288 0.4328,-0.192 0.8168,-0.448 1.1424,-0.776 0.324,-0.32 0.584,-0.704 0.7736,-1.144 0.1896,-0.432 0.2856,-0.904 0.2856,-1.392 0,-0.496 -0.096,-0.968 -0.2856,-1.4 -0.1896,-0.432 -0.4496,-0.816 -0.7736,-1.144 -0.324,-0.32 -0.7088,-0.584 -1.1424,-0.776 -0.4336,-0.184 -0.904,-0.28 -1.3984,-0.28 -0.4944,0 -0.9648,0.096 -1.3984,0.28 z m 2.5504,0.584 c 0.3592,0.16 0.676,0.368 0.9432,0.64 0.2672,0.264 0.48,0.584 0.6336,0.944 0.1544,0.36 0.2328,0.744 0.2328,1.152 0,0.4 -0.0784,0.792 -0.2328,1.152 -0.1536,0.36 -0.3664,0.672 -0.6336,0.936 -0.2656,0.272 -0.5832,0.48 -0.9432,0.64 -0.36,0.152 -0.7472,0.232 -1.152,0.232 -0.404,0 -0.7912,-0.08 -1.1512,-0.232 -0.3608,-0.16 -0.6784,-0.368 -0.944,-0.64 -0.2664,-0.264 -0.4792,-0.576 -0.6336,-0.936 -0.1544,-0.36 -0.232,-0.752 -0.232,-1.152 0,-0.408 0.0776,-0.8 0.232,-1.152 0.1544,-0.36 0.3672,-0.68 0.6336,-0.944 0.2672,-0.272 0.5848,-0.48 0.944,-0.64 0.36,-0.152 0.7472,-0.232 1.1512,-0.232 0.4048,0 0.792,0.08 1.152,0.232 z m -1.6904,0.928 -0.6616,0.01 v 3.6 h 1.5584 c 0.8168,0 1.3248,-0.44 1.3248,-1.144 0,-0.544 -0.2912,-0.944 -0.7984,-1.096 l 0.9144,-1.36 h -0.7976 l -0.8176,1.24 h -0.7224 z m 1.54,2.408 c 0,0.376 -0.2488,0.584 -0.7016,0.584 h -0.8384 v -1.176 h 0.8384 c 0.4328,0 0.7016,0.224 0.7016,0.592 z"
       stroke-width="0.2"
       fill-rule="nonzero"
       fill="#00002a"
       stroke="none"
       stroke-linejoin="miter"
       marker-start="none"
       marker-end="none"
       id="path1"
       style="fill:#ffffff;fill-opacity:1" />
  </g>
</svg>
